<?xml version="1.0" encoding="utf-8"?>
<!-- Generator: Adobe Illustrator 23.0.3, SVG Export Plug-In . SVG Version: 6.00 Build 0)  -->
<svg version="1.1" id="File" xmlns="http://www.w3.org/2000/svg" xmlns:xlink="http://www.w3.org/1999/xlink" x="0px" y="0px"
	 viewBox="0 0 512 512" style="enable-background:new 0 0 512 512;" xml:space="preserve">
<style type="text/css">
	.st0{fill:#FFFFFF;}
</style>
<path class="st0" d="M378.4,263.2h-5.2v-83.5L289,85.6H145.2c-24.7,0-44.7,20.1-44.7,44.7v251.4c0,24.7,20.1,44.7,44.7,44.7h183.2
	c24.7,0,44.7-20.1,44.7-44.7v-0.2h5.2c18.2,0,33.1-14.8,33.1-33.1v-52.3C411.5,278,396.7,263.2,378.4,263.2z M294.9,124.1l43.8,49
	h-43.8V124.1z M351.9,381.7c0,12.9-10.5,23.4-23.4,23.4H145.2c-12.9,0-23.4-10.5-23.4-23.4V130.3c0-12.9,10.5-23.4,23.4-23.4h128.3
	v87.6h78.4v68.7H240.3c-18.2,0-33.1,14.8-33.1,33.1v52.3c0,18.2,14.8,33.1,33.1,33.1h111.5V381.7z M390.2,348.5
	c0,6.5-5.3,11.7-11.7,11.7H240.3c-6.5,0-11.7-5.3-11.7-11.7v-52.3c0-6.5,5.3-11.7,11.7-11.7h138.1c6.5,0,11.7,5.3,11.7,11.7V348.5z"
	/>
<polygon class="st0" points="293.9,311.3 293.9,300.6 253.4,300.6 253.4,312.9 274.4,312.9 252.1,337 252.1,348.5 295,348.5 
	295,336.2 271.4,336.2 "/>
<rect x="300.4" y="300.6" class="st0" width="14.8" height="48"/>
<path class="st0" d="M347.5,300.6h-24.7v48h14.8V334h8.7c11,0,18.8-5.4,18.8-17.1C365.1,310.1,360.5,300.6,347.5,300.6z
	 M343.2,322.6h-5.7v-9.7h6.6c3.6,0,7,0.3,7,4.6C351.1,322.3,347.1,322.6,343.2,322.6z"/>
</svg>
